<?xml version="1.0" standalone="no"?><!DOCTYPE svg PUBLIC "-//W3C//DTD SVG 1.1//EN" "http://www.w3.org/Graphics/SVG/1.1/DTD/svg11.dtd"><svg t="1577849923235" class="icon" viewBox="0 0 1024 1024" version="1.1" xmlns="http://www.w3.org/2000/svg" p-id="2778" xmlns:xlink="http://www.w3.org/1999/xlink" width="200" height="200"><defs><style type="text/css"></style></defs><path d="M809.691429 219.428571h174.921142C1024 219.428571 1024 257.536 1024 257.536v728.356571C1024 1024 984.612571 1024 984.612571 1024H39.387429S0 1024 0 985.892571V257.536C0 219.428571 39.387429 219.428571 39.387429 219.428571H292.571429v73.142858H73.142857v658.285714h877.714286V292.571429h-141.165714V219.428571zM328.374857 464.457143A73.142857 73.142857 0 1 1 292.571429 412.050286v20.406857l35.766857 32zM672.914286 548.571429l241.371428 329.142857H109.714286l201.142857-156.269715 123.611428 70.582858L672.914286 548.571429z m-103.021715-281.965715h182.089143l-327.862857 440.027429 37.888-292.022857H363.593143L465.371429 35.364571h281.673142L569.892571 266.605714z" fill="#FFC0CB" p-id="2779"></path></svg>