<?xml version="1.0" standalone="no"?><!DOCTYPE svg PUBLIC "-//W3C//DTD SVG 1.1//EN" "http://www.w3.org/Graphics/SVG/1.1/DTD/svg11.dtd"><svg t="1580630869996" class="icon" viewBox="0 0 1024 1024" version="1.1" xmlns="http://www.w3.org/2000/svg" p-id="1714" xmlns:xlink="http://www.w3.org/1999/xlink" width="32" height="32"><defs><style type="text/css"></style></defs><path d="M961.930726 12.442458c-27.602235-27.602235-100.540782-5.005587-197.363128 54.346369C690.055866 24.455866 604.24581 0 512.572067 0 230.113966 0 1.144134 229.255866 1.144134 512c0 91.530726 24.312849 177.197765 66.502793 251.56648C7.150838 861.818994-16.160894 935.901676 11.727374 963.646927c58.350838 58.350838 318.355307-107.26257 580.791062-369.84134C854.811173 331.083799 1020.281564 70.793296 961.930726 12.442458zM269.014525 686.480447c-54.918436 0-99.539665-44.621229-99.539665-99.682682s44.621229-99.682682 99.539665-99.682681c54.918436 0 99.539665 44.621229 99.539665 99.682681S323.932961 686.480447 269.014525 686.480447z m174.194414-298.905028c-68.791061 0-124.424581-55.776536-124.424581-124.567598 0-68.791061 55.63352-124.567598 124.424581-124.567598s124.424581 55.776536 124.424581 124.567598c0 68.791061-55.776536 124.567598-124.424581 124.567598z m504.849162-144.160894c-64.357542 109.979888-179.62905 254.283799-324.648045 399.302793-133.72067 133.863687-266.726257 242.413408-372.844693 309.059218 76.656983 45.90838 166.185475 72.223464 262.006704 72.223464C795.030168 1024 1024 794.744134 1024 512c0-98.538547-27.888268-190.498324-75.941899-268.585475zM692.058101 860.960894c-41.188827 0-74.654749-33.465922-74.654749-74.797766s33.465922-74.797765 74.654749-74.797765c41.188827 0 74.654749 33.465922 74.654748 74.797765S733.246927 860.960894 692.058101 860.960894z m0 0" fill="#bfbfbf" p-id="1715"></path></svg>