<?xml version="1.0" standalone="no"?><!DOCTYPE svg PUBLIC "-//W3C//DTD SVG 1.1//EN" "http://www.w3.org/Graphics/SVG/1.1/DTD/svg11.dtd"><svg t="1580631188808" class="icon" viewBox="0 0 1035 1024" version="1.1" xmlns="http://www.w3.org/2000/svg" p-id="1954" xmlns:xlink="http://www.w3.org/1999/xlink" width="32.34375" height="32"><defs><style type="text/css"></style></defs><path d="M1000.615755 569.495224l-78.013044-85.814349c-23.403913-31.205218-31.205218-70.21174-23.403914-109.218262l46.807827-109.218262c15.602609-23.403913 7.801304-46.807827-15.602609-62.410436-7.801304-7.801304-15.602609-7.801304-23.403913-7.801304h-117.019567c-39.006522 0-78.013044-31.205218-93.615653-62.410436L649.557056 31.205218C641.755751 7.801304 618.351838 0 594.947925 0c-7.801304 0-15.602609 7.801304-23.403914 15.602609l-85.814348 78.013044c-31.205218 31.205218-70.21174 39.006522-109.218263 23.403913L267.293138 78.013044c-15.602609-15.602609-46.807827-7.801304-54.609131 15.602609-7.801304 7.801304-7.801304 15.602609-7.801304 23.403913V234.039133c0 39.006522-31.205218 78.013044-62.410436 93.615653l-109.218262 39.006522c-23.403913 7.801304-39.006522 31.205218-31.205217 54.609131 0 7.801304 7.801304 15.602609 15.602609 23.403914l78.013044 85.814348c23.403913 31.205218 31.205218 70.21174 23.403913 109.218263L72.260528 748.925226c-15.602609 23.403913-7.801304 46.807827 15.602608 62.410435 7.801304 7.801304 15.602609 7.801304 23.403914 7.801304h117.019566c39.006522 0 78.013044 23.403913 93.615653 62.410436l46.807827 109.218262c7.801304 23.403913 31.205218 39.006522 54.609131 31.205218 7.801304 0 15.602609-7.801304 23.403913-15.602609l85.814349-78.013044c31.205218-23.403913 70.21174-31.205218 109.218262-23.403914l109.218262 46.807827c23.403913 15.602609 46.807827 7.801304 62.410436-15.602609 7.801304-7.801304 7.801304-15.602609 7.801304-23.403913v-117.019567c0-39.006522 31.205218-78.013044 62.410436-93.615653l109.218262-46.807827c23.403913-7.801304 39.006522-31.205218 31.205217-54.609131-15.602609-15.602609-15.602609-23.403913-23.403913-31.205217zM672.960969 709.918703c-23.403913 0-46.807827 0-85.814349-39.006522-31.205218-31.205218-109.218262-124.820871-163.827393-195.032611l39.006522 202.833916v39.006522c-15.602609 31.205218-46.807827 39.006522-70.21174 31.205218-23.403913-7.801304-46.807827-31.205218-46.807826-62.410436l-54.609131-304.250873c0-15.602609 0-39.006522 7.801304-46.807826 15.602609-15.602609 31.205218-23.403913 54.609131-23.403914 23.403913-7.801304 46.807827 0 62.410436 23.403914 31.205218 31.205218 54.609131 62.410435 85.814348 93.615653L594.947925 546.09131l-39.006523-210.635219v-39.006523c7.801304-15.602609 23.403913-31.205218 39.006523-31.205217s31.205218 0 46.807826 7.801304c15.602609 15.602609 23.403913 31.205218 23.403913 46.807827L719.768796 624.104355c7.801304 31.205218-7.801304 62.410435-39.006523 78.013044l-7.801304 7.801304z" fill="#515151" p-id="1955"></path></svg>