<?xml version="1.0" standalone="no"?><!DOCTYPE svg PUBLIC "-//W3C//DTD SVG 1.1//EN" "http://www.w3.org/Graphics/SVG/1.1/DTD/svg11.dtd"><svg t="1581005345421" class="icon" viewBox="0 0 1024 1024" version="1.1" xmlns="http://www.w3.org/2000/svg" p-id="3142" xmlns:xlink="http://www.w3.org/1999/xlink" width="200" height="200"><defs><style type="text/css"></style></defs><path d="M893.465859 768.568889v-63.09495c20.48-13.239596 25.444848-35.891717 25.444848-61.957171V236.606061c0-40.96-46.131717-58.130101-87.195151-58.130101h-581.301011c-23.272727 0-15.411717 12.308687-29.06505 29.06505H163.219394c3.309899-56.888889 42.097778-87.298586 87.608889-87.298586h628.880808c53.785859 0 97.331717 43.442424 97.331717 97.124849V672.581818c0 48.924444-36.305455 89.367273-83.574949 95.987071z" fill="#407ABF" p-id="3143"></path><path d="M773.585455 265.671111H134.154343c-53.785859 0-87.195152 33.616162-87.195151 87.195152v455.111111c0 53.682424 43.545859 97.124848 97.331717 97.124848h628.880808c53.785859 0 87.608889-33.616162 87.608889-87.195151V352.866263c0-53.57899-14.99798-87.195152-87.195151-87.195152z m29.06505 523.067475c0 20.273131-8.791919 58.130101-29.06505 58.130101H134.154343c-20.273131 0-23.169293-23.686465-23.169292-43.959596V354.624646c0-20.169697 16.446061-36.615758 36.719191-36.615757L773.585455 323.801212c20.273131 0 29.065051 8.791919 29.06505 29.065051v435.872323z" fill="#407ABF" p-id="3144"></path><path d="M176.82101 794.32404s43.907879-365.304242 129.202424-359.317979c24.746667 1.861818 58.375758 44.140606 124.754748 206.183434 10.433939 25.703434 66.055758 115.626667 106.162424 49.726061 15.838384-26.117172 24.578586-77.459394 50.941414-86.186667 13.989495-4.848485 59.099798 8.003232 143.023839 189.608081H176.82101zM559.747879 441.289697a64.853333 64.853333 0 0 0 32.426666 56.164848 64.830061 64.830061 0 0 0 64.840404 0 64.853333 64.853333 0 0 0 32.426667-56.164848c0-23.169293-12.360404-44.580202-32.426667-56.151919a64.830061 64.830061 0 0 0-64.840404 0 64.815838 64.815838 0 0 0-32.426666 56.151919" fill="#DF2B2A" p-id="3145"></path></svg>