<?xml version="1.0" standalone="no"?><!DOCTYPE svg PUBLIC "-//W3C//DTD SVG 1.1//EN" "http://www.w3.org/Graphics/SVG/1.1/DTD/svg11.dtd"><svg t="1576399804339" class="icon" viewBox="0 0 1024 1024" version="1.1" xmlns="http://www.w3.org/2000/svg" p-id="3230" xmlns:xlink="http://www.w3.org/1999/xlink" width="24" height="24"><defs><style type="text/css"></style></defs><path d="M295.888476 568.980759 436.039469 672.747077 649.678174 423.740864 761.560334 744.174873 147.718855 744.174873Z" p-id="3231"></path><path d="M109.806383 155.763576l684.884512 0c58.022485 0 105.496729 47.542806 105.496729 105.651248L900.187625 757.904573c0 58.107419-47.474244 105.652272-105.496729 105.652272L109.806383 863.556844c-58.023508 0-105.495706-47.544853-105.495706-105.652272L4.310677 261.414825C4.310677 203.306382 51.782875 155.763576 109.806383 155.763576L109.806383 155.763576zM150.183999 205.747991c-51.18066 0-93.055372 40.827871-93.055372 90.729397l0 426.364621c0 49.901527 41.874713 90.729397 93.055372 90.729397l604.128257 0c51.182706 0 93.057419-40.827871 93.057419-90.729397L847.369675 296.477388c0-49.901527-41.875736-90.729397-93.057419-90.729397L150.183999 205.747991z" p-id="3232"></path><path d="M214.753597 255.592212c55.236022 0 100.029204 44.859697 100.029204 100.177584 0 55.316863-44.793182 100.177584-100.029204 100.177584-55.236022 0-100.029204-44.86072-100.029204-100.177584C114.724393 300.452933 159.518598 255.592212 214.753597 255.592212L214.753597 255.592212zM214.753597 295.430546c-33.269731 0-60.250222 27.0204-60.250222 60.33925s26.980491 60.33925 60.250222 60.33925 60.250222-27.0204 60.250222-60.33925S248.023328 295.430546 214.753597 295.430546z" p-id="3233"></path><path d="M232.574475 52.751435 917.458987 52.751435c58.022485 0 105.495706 47.542806 105.495706 105.652272l0 496.489748c0 52.697199-39.040155 96.702436-89.588411 104.441701l0-67.384713c22.309098-16.615423 36.771485-42.799782 36.771485-72.119551L970.137767 193.465247c0-49.901527-41.875736-90.730421-93.057419-90.730421L272.953114 102.734826c-27.237341 0-51.836599 11.56643-68.89409 29.907147l-73.782424 0C141.836891 86.877673 183.416891 52.751435 232.574475 52.751435z" p-id="3234"></path></svg>