<?xml version="1.0" standalone="no"?><!DOCTYPE svg PUBLIC "-//W3C//DTD SVG 1.1//EN" "http://www.w3.org/Graphics/SVG/1.1/DTD/svg11.dtd"><svg t="1581005359891" class="icon" viewBox="0 0 1024 1024" version="1.1" xmlns="http://www.w3.org/2000/svg" p-id="4466" xmlns:xlink="http://www.w3.org/1999/xlink" width="200" height="200"><defs><style type="text/css"></style></defs><path d="M799.1296 156.672H93.184C27.8528 156.8768 0 189.44 0 254.3616v464.6912c0 65.1264 28.2624 92.9792 94.0032 92.9792h47.104c23.552 0 46.8992 9.216 46.8992 46.4896v111.4112c0 13.9264 9.4208 23.3472 23.552 23.3472 4.7104 0 9.4208 0 14.1312-4.5056l197.2224-134.7584c37.4784-27.8528 56.32-46.4896 94.0032-46.4896H798.72c63.488 0 91.9552-26.0096 93.7984-86.2208V249.6512c-0.2048-64.7168-28.0576-92.7744-93.3888-92.9792zM704.512 607.6416c0 10.0352-3.8912 19.456-10.8544 26.624-7.168 6.9632-16.7936 10.8544-26.624 10.6496H201.9328c-10.0352 0.2048-19.6608-3.6864-26.624-10.6496-7.168-6.9632-11.0592-16.5888-10.8544-26.624v-4.5056c0-23.3472 18.8416-37.2736 37.4784-37.2736h465.1008c23.552 0 37.6832 18.6368 37.6832 37.0688v4.7104z m10.24-196.8128c-8.192 13.312-22.9376 21.0944-38.5024 20.0704H201.9328c-15.5648 1.024-30.5152-6.7584-38.5024-20.0704-8.192-13.312-8.192-30.1056 0-43.4176s22.9376-21.0944 38.5024-20.0704h474.5216c15.5648-1.024 30.5152 6.7584 38.5024 20.0704 7.9872 13.312 7.9872 30.1056-0.2048 43.4176z" p-id="4467"></path><path d="M939.8272 630.1696c46.8992-4.7104 84.5824-41.7792 84.5824-92.9792V118.9888c0-46.4896-42.1888-88.2688-94.0032-88.2688H300.8512C249.2416 30.72 206.848 72.4992 206.848 123.6992v9.216h0.8192-0.8192 47.104-0.8192 0.8192v-9.216c0-27.8528 18.8416-46.4896 46.8992-46.4896h629.3504c23.552 0 46.8992 18.6368 46.8992 46.4896v413.696c0 23.1424-18.8416 46.4896-46.8992 46.4896h-14.1312v46.4896h23.7568z" p-id="4468"></path><path d="M799.1296 156.672H93.184C27.8528 156.8768 0 189.44 0 254.3616v464.6912c0 65.1264 28.2624 92.9792 94.0032 92.9792h47.104c23.552 0 46.8992 9.216 46.8992 46.4896v111.4112c0 13.9264 9.4208 23.3472 23.552 23.3472 4.7104 0 9.4208 0 14.1312-4.5056l197.2224-134.7584c37.4784-27.8528 56.32-46.4896 94.0032-46.4896H798.72c63.488 0 91.9552-26.0096 93.7984-86.2208V249.6512c-0.2048-64.7168-28.0576-92.7744-93.3888-92.9792zM704.512 607.6416c0 10.0352-3.8912 19.456-10.8544 26.624-7.168 6.9632-16.7936 10.8544-26.624 10.6496H201.9328c-10.0352 0.2048-19.6608-3.6864-26.624-10.6496-7.168-6.9632-11.0592-16.5888-10.8544-26.624v-4.5056c0-23.3472 18.8416-37.2736 37.4784-37.2736h465.1008c23.552 0 37.6832 18.6368 37.6832 37.0688v4.7104z m10.24-196.8128c-8.192 13.312-22.9376 21.0944-38.5024 20.0704H201.9328c-15.5648 1.024-30.5152-6.7584-38.5024-20.0704-8.192-13.312-8.192-30.1056 0-43.4176s22.9376-21.0944 38.5024-20.0704h474.5216c15.5648-1.024 30.5152 6.7584 38.5024 20.0704 7.9872 13.312 7.9872 30.1056-0.2048 43.4176z" fill="#1C69A1" p-id="4469"></path><path d="M939.8272 630.1696c46.8992-4.7104 84.5824-41.7792 84.5824-92.9792V118.9888c0-46.4896-42.1888-88.2688-94.0032-88.2688H300.8512C249.2416 30.72 206.848 72.4992 206.848 123.6992v9.216h0.8192-0.8192 47.104-0.8192 0.8192v-9.216c0-27.8528 18.8416-46.4896 46.8992-46.4896h629.3504c23.552 0 46.8992 18.6368 46.8992 46.4896v413.696c0 23.1424-18.8416 46.4896-46.8992 46.4896h-14.1312v46.4896h23.7568z" fill="#1C69A1" opacity=".5" p-id="4470"></path></svg>